<svg width="103" height="37" viewBox="0 0 103 25" fill="none" xmlns="http://www.w3.org/2000/svg">
<path d="M0.291637 24L3.9641 1.87879H13.1885C14.8447 1.87879 16.1949 2.11282 17.239 2.58088C18.2831 3.04894 19.0176 3.70422 19.4425 4.54673C19.8745 5.38924 19.9969 6.36496 19.8097 7.4739C19.6585 8.30921 19.3489 9.0581 18.8808 9.72059C18.4199 10.3759 17.8439 10.9231 17.1526 11.3624C16.4613 11.7944 15.698 12.0969 14.8627 12.2697L14.8195 12.4857C15.7124 12.5217 16.5009 12.7594 17.185 13.1986C17.8763 13.6379 18.3875 14.2536 18.7188 15.0457C19.05 15.8306 19.1256 16.7523 18.9456 17.8108C18.7512 18.999 18.2723 20.0611 17.509 20.9972C16.7529 21.9261 15.7556 22.6606 14.517 23.2007C13.2785 23.7336 11.8455 24 10.2181 24H0.291637ZM6.37281 19.6903H9.67803C10.823 19.6903 11.7087 19.4706 12.3352 19.0314C12.9688 18.5849 13.3433 17.9728 13.4585 17.1951C13.5521 16.6263 13.5017 16.1366 13.3073 15.7261C13.1129 15.3085 12.7888 14.9881 12.3352 14.7648C11.8815 14.5344 11.309 14.4192 10.6177 14.4192H7.21532L6.37281 19.6903ZM7.80939 10.9735H10.7798C11.3558 10.9735 11.8851 10.8763 12.3676 10.6819C12.8572 10.4875 13.2605 10.2066 13.5773 9.8394C13.9014 9.47215 14.103 9.0293 14.1822 8.51083C14.3046 7.76914 14.1354 7.18586 13.6745 6.76101C13.2137 6.33616 12.5404 6.12373 11.6547 6.12373H8.60869L7.80939 10.9735ZM24.1627 1.87879H30.7839L34.1323 15.5749H34.3916L42.2766 1.87879H48.8978L45.2253 24H40.0191L42.2766 10.4119H42.0929L34.5536 23.8596H31.2376L28.17 10.3363H27.9864L25.6965 24H20.4902L24.1627 1.87879ZM48.5603 24L51.3254 7.40909H56.6073L53.8421 24H48.5603ZM54.339 5.46485C53.5901 5.46485 52.9816 5.21641 52.5136 4.71955C52.0455 4.22269 51.8619 3.62861 51.9627 2.93732C52.0635 2.23883 52.4164 1.64476 53.0212 1.1551C53.6261 0.665435 54.2994 0.420605 55.0411 0.420605C55.79 0.420605 56.3913 0.665435 56.8449 1.1551C57.3058 1.64476 57.4858 2.23883 57.385 2.93732C57.2986 3.62861 56.9529 4.22269 56.3481 4.71955C55.7504 5.21641 55.0807 5.46485 54.339 5.46485ZM65.4995 24H57.2041L60.8765 1.87879H68.9236C71.1702 1.87879 73.0425 2.33605 74.5403 3.25056C76.0453 4.15788 77.1074 5.46124 77.7267 7.16066C78.3532 8.85288 78.472 10.8691 78.0831 13.2094C77.7087 15.4705 76.9562 17.4076 75.8256 19.0206C74.7023 20.6336 73.2621 21.8685 71.5051 22.7254C69.7481 23.5751 67.7462 24 65.4995 24ZM63.296 19.4418H65.8344C67.0729 19.4418 68.1675 19.2186 69.118 18.7721C70.0757 18.3185 70.8678 17.5948 71.4943 16.6011C72.1208 15.6001 72.5672 14.286 72.8337 12.6586C73.0929 11.1032 73.0821 9.87541 72.8012 8.97529C72.5276 8.06798 71.9947 7.41989 71.2026 7.03104C70.4177 6.63499 69.3916 6.43697 68.1243 6.43697H65.4671L63.296 19.4418ZM102.084 13.285C101.681 15.6685 100.888 17.6812 99.7075 19.323C98.5337 20.9576 97.1043 22.1962 95.4193 23.0387C93.7415 23.8812 91.9377 24.3024 90.0078 24.3024C87.97 24.3024 86.2058 23.8488 84.7152 22.9415C83.2246 22.0342 82.1408 20.7128 81.4639 18.9774C80.7943 17.2419 80.6646 15.1357 81.0751 12.6586C81.4639 10.2751 82.2452 8.2588 83.419 6.60979C84.5999 4.96078 86.0365 3.71142 87.7287 2.86171C89.4282 2.0048 91.25 1.57635 93.1942 1.57635C95.2177 1.57635 96.9711 2.03361 98.4545 2.94812C99.9451 3.86264 101.025 5.19121 101.695 6.93383C102.365 8.67645 102.494 10.7935 102.084 13.285ZM96.7371 12.6586C96.9603 11.2688 96.9603 10.0986 96.7371 9.14811C96.5211 8.19759 96.0962 7.4811 95.4625 6.99864C94.8288 6.50898 94.0043 6.26415 92.989 6.26415C91.8657 6.26415 90.8503 6.54138 89.943 7.09585C89.0429 7.64312 88.2904 8.44242 87.6855 9.49376C87.0807 10.5379 86.6594 11.8016 86.4218 13.285C86.1769 14.6892 86.1697 15.8594 86.4002 16.7955C86.6378 17.7316 87.0807 18.4373 87.7287 18.9126C88.3768 19.3806 89.2013 19.6146 90.2023 19.6146C91.3184 19.6146 92.3229 19.3446 93.2158 18.8045C94.1088 18.2645 94.8541 17.476 95.4517 16.439C96.0566 15.4021 96.4851 14.1419 96.7371 12.6586Z" fill="white"/>
</svg>
